# Wavefront OBJ file
# Exported by Misfit Model 3D 1.3.8
# Thu Mar 26 09:45:15 2015

mtllib arrowsign.mtl

# 48 Vertices
v 0.249756 -0.09375 -0.181519
v 0.020462 -0.09375 -0.181519
v 0.020462 -0.09375 -0.385254
v 0.249756 -0.09375 -0.385254
v 0.249756 1.976563 -0.181519
v 0.249756 1.976563 -0.385254
v 0.020462 1.976563 -0.385254
v 0.020462 1.976563 -0.181519
v 0.748535 1.450195 -0.396729
v 0.748535 1.450195 -0.1698
v -0.487305 1.400391 -0.1698
v -0.487305 1.400391 -0.396729
v 0.710449 3.423828 -0.1698
v 0.710449 3.423828 -0.396729
v -0.507324 3.478516 -0.396729
v -0.507324 3.478516 -0.1698
v -1.737305 1.482422 -0.396729
v -1.737305 1.482422 -0.1698
v -1.764648 3.453125 -0.1698
v -1.764648 3.453125 -0.396729
v -0.487305 1.431641 -0.138306
v 0.748535 1.482422 -0.138306
v 0.710449 3.392578 -0.138306
v -0.507324 3.447266 -0.138306
v 2.007813 1.482422 -0.1698
v 2.007813 1.482422 -0.396729
v 1.974609 3.421875 -0.396729
v 1.974609 3.421875 -0.1698
v -0.487305 1.431641 -0.428467
v -0.507324 3.447266 -0.428467
v 0.710449 3.392578 -0.428467
v 0.748535 1.482422 -0.428467
v -1.705078 1.482422 -0.428467
v -1.705078 1.450195 -0.396729
v -1.705078 1.450195 -0.1698
v -1.705078 1.482422 -0.138306
v 1.975586 1.482422 -0.428467
v 1.975586 1.450195 -0.396729
v 1.975586 1.450195 -0.1698
v 1.975586 1.482422 -0.138306
v -1.733398 3.484375 -0.396729
v -1.733398 3.453125 -0.428467
v -1.733398 3.453125 -0.138306
v -1.733398 3.484375 -0.1698
v 1.942383 3.421875 -0.428467
v 1.942383 3.453125 -0.396729
v 1.942383 3.453125 -0.1698
v 1.942383 3.421875 -0.138306

# 264 Texture Coordinates
vt -0.187622 5.140625
vt -0.068848 5.160156
vt -0.187622 5.179688
vt -0.868652 5.179688
vt -0.987305 5.160156
vt -0.868652 5.140625
vt 0.962891 0.171875
vt 0.970703 0.172852
vt 0.962891 0.160645
vt -0.868652 7.332031
vt -0.878906 7.386719
vt -1.005859 7.339844
vt -0.187622 3.697266
vt -0.187622 3.662109
vt -0.068848 3.679688
vt -0.987305 3.679688
vt -0.868652 3.662109
vt -0.868652 3.697266
vt 0.95166 0.85791
vt 0.95166 0.869019
vt 0.959473 0.859131
vt 0.959473 0.859131
vt 0.95166 0.869019
vt 0.95166 0.85791
vt 0.645508 0.799316
vt 0.645508 0.810425
vt 0.343018 0.781616
vt 0.343018 0.781616
vt 0.343018 0.770508
vt 0.645508 0.799316
vt 0.343018 0.770508
vt 0.343018 0.781616
vt 0.645508 0.810425
vt 0.645508 0.810425
vt 0.645508 0.799316
vt 0.343018 0.770508
vt 0.505859 0.666504
vt 0.505859 0.85022
vt 0.075928 0.85022
vt 0.075928 0.85022
vt 0.075928 0.666504
vt 0.505859 0.666504
vt 0.049561 0.842041
vt 0.049561 0.666992
vt 0.950684 0.666992
vt 0.950684 0.666992
vt 0.950684 0.842041
vt 0.049561 0.842041
vt 0.049561 0.842041
vt 0.049561 0.666992
vt 0.950684 0.666992
vt 0.950684 0.666992
vt 0.950684 0.842041
vt 0.049561 0.842041
vt 0.941406 0.667236
vt 0.941406 0.851074
vt 0.074524 0.851074
vt 0.074524 0.851074
vt 0.074524 0.667236
vt 0.941406 0.667236
vt 0.049561 0.842041
vt 0.049561 0.666992
vt 0.950684 0.666992
vt 0.950684 0.666992
vt 0.950684 0.842041
vt 0.049561 0.842041
vt 0.942871 0.667236
vt 0.942871 0.851074
vt 0.075928 0.851074
vt 0.075928 0.851074
vt 0.075928 0.667236
vt 0.942871 0.667236
vt 1.849609 1.870605
vt 1.849609 1.991211
vt 0.720215 1.991211
vt 0.720215 1.991211
vt 0.720215 1.870605
vt 1.849609 1.870605
vt -2.152344 1.991211
vt -2.152344 1.870605
vt -1.022461 1.870605
vt -1.022461 1.870605
vt -1.022461 1.991211
vt -2.152344 1.991211
vt 0.658203 0.124023
vt 0.658203 0.112793
vt 0.351074 0.046387
vt 0.351074 0.046387
vt 0.351074 0.057617
vt 0.658203 0.124023
vt -2.046875 1.870605
vt -2.152344 1.870605
vt -2.152344 1.991211
vt -2.152344 1.991211
vt -2.046875 1.991211
vt -2.046875 1.870605
vt 0.351074 0.057617
vt 0.351074 0.046387
vt 0.658203 0.112793
vt 0.658203 0.112793
vt 0.658203 0.124023
vt 0.351074 0.057617
vt 1.878906 1.991211
vt 1.849609 1.991211
vt 1.849609 1.870605
vt 1.849609 1.870605
vt 1.878906 1.870605
vt 1.878906 1.991211
vt 0.691406 1.870605
vt 0.720215 1.870605
vt 0.720215 1.991211
vt 0.720215 1.991211
vt 0.691406 1.991211
vt 0.691406 1.870605
vt -0.993652 1.991211
vt -1.022461 1.991211
vt -1.022461 1.870605
vt -1.022461 1.870605
vt -0.993652 1.870605
vt -0.993652 1.991211
vt 0.040344 0.026367
vt 0.048157 0.027832
vt 0.038361 0.724609
vt 0.038361 0.724609
vt 0.030518 0.723389
vt 0.040344 0.026367
vt 0.030518 0.723389
vt 0.038361 0.724609
vt 0.048157 0.027832
vt 0.048157 0.027832
vt 0.040344 0.026367
vt 0.030518 0.723389
vt 0.962891 0.171875
vt 0.970703 0.172852
vt 0.959473 0.859131
vt 0.959473 0.859131
vt 0.95166 0.85791
vt 0.962891 0.171875
vt 0.970703 0.172852
vt 0.962891 0.171875
vt 0.95166 0.85791
vt 0.95166 0.85791
vt 0.959473 0.859131
vt 0.970703 0.172852
vt 3.564453 1.870605
vt 3.564453 1.991211
vt 3.001953 1.991211
vt 3.001953 1.991211
vt 3.001953 1.870605
vt 3.564453 1.870605
vt 3.001953 1.870605
vt 3.001953 1.991211
vt 2.439453 1.991211
vt 2.439453 1.991211
vt 2.439453 1.870605
vt 3.001953 1.870605
vt 2.439453 1.870605
vt 2.439453 1.991211
vt 1.878906 1.991211
vt 1.878906 1.991211
vt 1.878906 1.870605
vt 2.439453 1.870605
vt -0.993652 1.991211
vt -0.993652 1.870605
vt -0.432129 1.870605
vt -0.432129 1.870605
vt -0.432129 1.991211
vt -0.993652 1.991211
vt -0.432129 1.991211
vt -0.432129 1.870605
vt 0.129517 1.870605
vt 0.129517 1.870605
vt 0.129517 1.991211
vt -0.432129 1.991211
vt 0.129517 1.991211
vt 0.129517 1.870605
vt 0.691406 1.870605
vt 0.691406 1.870605
vt 0.691406 1.991211
vt 0.129517 1.991211
vt 0.658203 0.124023
vt 0.962891 0.171875
vt 0.95166 0.85791
vt 0.95166 0.85791
vt 0.645508 0.799316
vt 0.658203 0.124023
vt 0.351074 0.057617
vt 0.658203 0.124023
vt 0.645508 0.799316
vt 0.048157 0.027832
vt 0.351074 0.057617
vt 0.343018 0.770508
vt 0.645508 0.799316
vt 0.343018 0.770508
vt 0.351074 0.057617
vt 0.343018 0.770508
vt 0.038361 0.724609
vt 0.048157 0.027832
vt 0.048157 0.027832
vt 0.038361 0.724609
vt 0.343018 0.770508
vt 0.343018 0.770508
vt 0.351074 0.057617
vt 0.048157 0.027832
vt 0.351074 0.057617
vt 0.343018 0.770508
vt 0.645508 0.799316
vt 0.645508 0.799316
vt 0.658203 0.124023
vt 0.351074 0.057617
vt 0.658203 0.124023
vt 0.645508 0.799316
vt 0.95166 0.85791
vt 0.95166 0.85791
vt 0.962891 0.171875
vt 0.658203 0.124023
vt 0.962891 0.171875
vt 0.962891 0.160645
vt 0.658203 0.112793
vt 0.658203 0.112793
vt 0.658203 0.124023
vt 0.962891 0.171875
vt 0.048218 0.016602
vt 0.048157 0.027832
vt 0.351074 0.057617
vt 0.351074 0.057617
vt 0.351074 0.046387
vt 0.048218 0.016602
vt 0.048157 0.027832
vt 0.048218 0.016602
vt 0.351074 0.046387
vt 0.351074 0.046387
vt 0.351074 0.057617
vt 0.048157 0.027832
vt 0.962891 0.160645
vt 0.962891 0.171875
vt 0.658203 0.124023
vt 0.658203 0.124023
vt 0.658203 0.112793
vt 0.962891 0.160645
vt 0.95166 0.85791
vt 0.95166 0.869019
vt 0.645508 0.810425
vt 0.645508 0.810425
vt 0.645508 0.799316
vt 0.95166 0.85791
vt 0.0383 0.73584
vt 0.038361 0.724609
vt 0.343018 0.770508
vt 0.343018 0.770508
vt 0.343018 0.781616
vt 0.0383 0.73584
vt 0.038361 0.724609
vt 0.0383 0.73584
vt 0.343018 0.781616
vt 0.343018 0.781616
vt 0.343018 0.770508
vt 0.038361 0.724609
vt 0.95166 0.869019
vt 0.95166 0.85791
vt 0.645508 0.799316
vt 0.645508 0.799316
vt 0.645508 0.810425
vt 0.95166 0.869019

# 264 Vertex Normals
vn -0.889833 -0.384404 -0.245829
vn -0.381811 -0.245181 -0.891127
vn -0.312344 -0.835711 -0.451694
vn -0.39614 -0.884693 0.245745
vn -0.251267 -0.376185 0.891824
vn -0.838438 -0.298621 0.455903
vn 0.290187 -0.447039 -0.846137
vn 0.842051 -0.283458 -0.458914
vn 0.378304 -0.892259 -0.246494
vn 0.291876 -0.83866 0.459846
vn 0.89489 -0.370678 0.248537
vn 0.447803 -0.283562 0.847977
vn -0.844431 0.285979 -0.452938
vn -0.376479 0.894298 -0.241857
vn -0.293886 0.455946 -0.840086
vn -0.452545 0.289387 0.84348
vn -0.290171 0.843754 0.451531
vn -0.895561 0.37239 0.243506
vn 0.371455 0.251344 -0.893783
vn 0.274867 0.849164 -0.450964
vn 0.886196 0.393144 -0.24514
vn 0.834398 0.306259 0.458242
vn 0.360617 0.900113 0.244443
vn 0.234071 0.383017 0.893593
vn 0.008459 0.384391 0.923132
vn 0.011551 0.924521 0.380956
vn 0.02191 0.9244 0.380795
vn 0.02191 0.9244 0.380795
vn 0.006978 0.384436 0.923125
vn 0.008459 0.384391 0.923132
vn 0.012175 0.386165 -0.92235
vn 0.024012 0.925049 -0.379087
vn 0.007989 0.925315 -0.379115
vn 0.007989 0.925315 -0.379115
vn -0.000344 0.386208 -0.922412
vn 0.012175 0.386165 -0.92235
vn 0.0 -1.0 0.0
vn 0.0 -1.0 0.0
vn 0.0 -1.0 0.0
vn 0.0 -1.0 0.0
vn 0.0 -1.0 0.0
vn 0.0 -1.0 0.0
vn 0.0 1.0 0.0
vn -0.0 1.0 0.0
vn 0.0 1.0 0.0
vn 0.0 1.0 0.0
vn 0.0 1.0 0.0
vn 0.0 1.0 0.0
vn 1.0 0.0 -0.0
vn 1.0 0.0 -0.0
vn 1.0 0.0 -0.0
vn 1.0 0.0 -0.0
vn 1.0 0.0 0.0
vn 1.0 0.0 -0.0
vn 0.0 -0.0 -1.0
vn 0.0 0.0 -1.0
vn 0.0 -0.0 -1.0
vn 0.0 -0.0 -1.0
vn 0.0 -0.0 -1.0
vn 0.0 -0.0 -1.0
vn -1.0 0.0 -0.0
vn -1.0 0.0 -0.0
vn -1.0 0.0 -0.0
vn -1.0 0.0 -0.0
vn -1.0 0.0 0.0
vn -1.0 0.0 -0.0
vn 0.0 0.0 1.0
vn 0.0 0.0 1.0
vn 0.0 0.0 1.0
vn 0.0 0.0 1.0
vn 0.0 -0.0 1.0
vn 0.0 0.0 1.0
vn -0.889833 -0.384404 -0.245829
vn -0.838438 -0.298621 0.455903
vn -0.895561 0.37239 0.243506
vn -0.895561 0.37239 0.243506
vn -0.844431 0.285979 -0.452938
vn -0.889833 -0.384404 -0.245829
vn 0.89489 -0.370678 0.248537
vn 0.842051 -0.283458 -0.458914
vn 0.886196 0.393144 -0.24514
vn 0.886196 0.393144 -0.24514
vn 0.834398 0.306259 0.458242
vn 0.89489 -0.370678 0.248537
vn 0.010375 -0.381443 -0.924334
vn 0.019662 -0.922199 -0.386216
vn -0.002356 -0.924347 -0.381546
vn -0.002356 -0.924347 -0.381546
vn -0.005255 -0.3838 -0.923401
vn 0.010375 -0.381443 -0.924334
vn 0.378304 -0.892259 -0.246494
vn 0.842051 -0.283458 -0.458914
vn 0.89489 -0.370678 0.248537
vn 0.89489 -0.370678 0.248537
vn 0.291876 -0.83866 0.459846
vn 0.378304 -0.892259 -0.246494
vn 0.004999 -0.38202 0.924141
vn 0.001825 -0.92361 0.383328
vn 0.017627 -0.922514 0.38556
vn 0.017627 -0.922514 0.38556
vn 0.005167 -0.377332 0.926064
vn 0.004999 -0.38202 0.924141
vn -0.39614 -0.884693 0.245745
vn -0.838438 -0.298621 0.455903
vn -0.889833 -0.384404 -0.245829
vn -0.889833 -0.384404 -0.245829
vn -0.312344 -0.835711 -0.451694
vn -0.39614 -0.884693 0.245745
vn -0.376479 0.894298 -0.241857
vn -0.844431 0.285979 -0.452938
vn -0.895561 0.37239 0.243506
vn -0.895561 0.37239 0.243506
vn -0.290171 0.843754 0.451531
vn -0.376479 0.894298 -0.241857
vn 0.360617 0.900113 0.244443
vn 0.834398 0.306259 0.458242
vn 0.886196 0.393144 -0.24514
vn 0.886196 0.393144 -0.24514
vn 0.274867 0.849164 -0.450964
vn 0.360617 0.900113 0.244443
vn -0.838438 -0.298621 0.455903
vn -0.251267 -0.376185 0.891824
vn -0.452545 0.289387 0.84348
vn -0.452545 0.289387 0.84348
vn -0.895561 0.37239 0.243506
vn -0.838438 -0.298621 0.455903
vn -0.844431 0.285979 -0.452938
vn -0.293886 0.455946 -0.840086
vn -0.381811 -0.245181 -0.891127
vn -0.381811 -0.245181 -0.891127
vn -0.889833 -0.384404 -0.245829
vn -0.844431 0.285979 -0.452938
vn 0.447803 -0.283562 0.847977
vn 0.89489 -0.370678 0.248537
vn 0.834398 0.306259 0.458242
vn 0.834398 0.306259 0.458242
vn 0.234071 0.383017 0.893593
vn 0.447803 -0.283562 0.847977
vn 0.842051 -0.283458 -0.458914
vn 0.290187 -0.447039 -0.846137
vn 0.371455 0.251344 -0.893783
vn 0.371455 0.251344 -0.893783
vn 0.886196 0.393144 -0.24514
vn 0.842051 -0.283458 -0.458914
vn 0.378304 -0.892259 -0.246494
vn 0.291876 -0.83866 0.459846
vn 0.017627 -0.922514 0.38556
vn 0.017627 -0.922514 0.38556
vn 0.019662 -0.922199 -0.386216
vn 0.378304 -0.892259 -0.246494
vn 0.019662 -0.922199 -0.386216
vn 0.017627 -0.922514 0.38556
vn 0.001825 -0.92361 0.383328
vn 0.001825 -0.92361 0.383328
vn -0.002356 -0.924347 -0.381546
vn 0.019662 -0.922199 -0.386216
vn -0.002356 -0.924347 -0.381546
vn 0.001825 -0.92361 0.383328
vn -0.39614 -0.884693 0.245745
vn -0.39614 -0.884693 0.245745
vn -0.312344 -0.835711 -0.451694
vn -0.002356 -0.924347 -0.381546
vn 0.360617 0.900113 0.244443
vn 0.274867 0.849164 -0.450964
vn 0.007989 0.925315 -0.379115
vn 0.007989 0.925315 -0.379115
vn 0.011551 0.924521 0.380956
vn 0.360617 0.900113 0.244443
vn 0.011551 0.924521 0.380956
vn 0.007989 0.925315 -0.379115
vn 0.024012 0.925049 -0.379087
vn 0.024012 0.925049 -0.379087
vn 0.02191 0.9244 0.380795
vn 0.011551 0.924521 0.380956
vn 0.02191 0.9244 0.380795
vn 0.024012 0.925049 -0.379087
vn -0.376479 0.894298 -0.241857
vn -0.376479 0.894298 -0.241857
vn -0.290171 0.843754 0.451531
vn 0.02191 0.9244 0.380795
vn 0.005167 -0.377332 0.926064
vn 0.447803 -0.283562 0.847977
vn 0.234071 0.383017 0.893593
vn 0.234071 0.383017 0.893593
vn 0.008459 0.384391 0.923132
vn 0.005167 -0.377332 0.926064
vn 0.004999 -0.38202 0.924141
vn 0.005167 -0.377332 0.926064
vn 0.008459 0.384391 0.923132
vn -0.251267 -0.376185 0.891824
vn 0.004999 -0.38202 0.924141
vn 0.006978 0.384436 0.923125
vn 0.008459 0.384391 0.923132
vn 0.006978 0.384436 0.923125
vn 0.004999 -0.38202 0.924141
vn 0.006978 0.384436 0.923125
vn -0.452545 0.289387 0.84348
vn -0.251267 -0.376185 0.891824
vn -0.381811 -0.245181 -0.891127
vn -0.293886 0.455946 -0.840086
vn 0.012175 0.386165 -0.92235
vn 0.012175 0.386165 -0.92235
vn -0.005255 -0.3838 -0.923401
vn -0.381811 -0.245181 -0.891127
vn -0.005255 -0.3838 -0.923401
vn 0.012175 0.386165 -0.92235
vn -0.000344 0.386208 -0.922412
vn -0.000344 0.386208 -0.922412
vn 0.010375 -0.381443 -0.924334
vn -0.005255 -0.3838 -0.923401
vn 0.010375 -0.381443 -0.924334
vn -0.000344 0.386208 -0.922412
vn 0.371455 0.251344 -0.893783
vn 0.371455 0.251344 -0.893783
vn 0.290187 -0.447039 -0.846137
vn 0.010375 -0.381443 -0.924334
vn 0.290187 -0.447039 -0.846137
vn 0.378304 -0.892259 -0.246494
vn 0.019662 -0.922199 -0.386216
vn 0.019662 -0.922199 -0.386216
vn 0.010375 -0.381443 -0.924334
vn 0.290187 -0.447039 -0.846137
vn -0.312344 -0.835711 -0.451694
vn -0.381811 -0.245181 -0.891127
vn -0.005255 -0.3838 -0.923401
vn -0.005255 -0.3838 -0.923401
vn -0.002356 -0.924347 -0.381546
vn -0.312344 -0.835711 -0.451694
vn -0.251267 -0.376185 0.891824
vn -0.39614 -0.884693 0.245745
vn 0.001825 -0.92361 0.383328
vn 0.001825 -0.92361 0.383328
vn 0.004999 -0.38202 0.924141
vn -0.251267 -0.376185 0.891824
vn 0.291876 -0.83866 0.459846
vn 0.447803 -0.283562 0.847977
vn 0.005167 -0.377332 0.926064
vn 0.005167 -0.377332 0.926064
vn 0.017627 -0.922514 0.38556
vn 0.291876 -0.83866 0.459846
vn 0.234071 0.383017 0.893593
vn 0.360617 0.900113 0.244443
vn 0.011551 0.924521 0.380956
vn 0.011551 0.924521 0.380956
vn 0.008459 0.384391 0.923132
vn 0.234071 0.383017 0.893593
vn -0.290171 0.843754 0.451531
vn -0.452545 0.289387 0.84348
vn 0.006978 0.384436 0.923125
vn 0.006978 0.384436 0.923125
vn 0.02191 0.9244 0.380795
vn -0.290171 0.843754 0.451531
vn -0.293886 0.455946 -0.840086
vn -0.376479 0.894298 -0.241857
vn 0.024012 0.925049 -0.379087
vn 0.024012 0.925049 -0.379087
vn 0.012175 0.386165 -0.92235
vn -0.293886 0.455946 -0.840086
vn 0.274867 0.849164 -0.450964
vn 0.371455 0.251344 -0.893783
vn -0.000344 0.386208 -0.922412
vn -0.000344 0.386208 -0.922412
vn 0.007989 0.925315 -0.379115
vn 0.274867 0.849164 -0.450964

# submesh_0, 88 grouped triangles

usemtl arrow
o submesh_0
g submesh_0

f 17/1/1 33/2/2 34/3/3
f 35/4/4 36/5/5 18/6/6
f 37/7/7 26/8/8 38/9/9
f 39/10/10 25/11/11 40/12/12
f 20/13/13 41/14/14 42/15/15
f 43/16/16 44/17/17 19/18/18
f 45/19/19 46/20/20 27/21/21
f 28/22/22 47/23/23 48/24/24
f 23/25/25 13/26/26 16/27/27
f 16/28/28 24/29/29 23/30/30
f 30/31/31 15/32/32 14/33/33
f 14/34/34 31/35/35 30/36/36
f 1/37/37 2/38/38 3/39/39
f 3/40/40 4/41/41 1/42/42
f 5/43/43 6/44/44 7/45/45
f 7/46/46 8/47/47 5/48/48
f 1/49/49 4/50/50 6/51/51
f 6/52/52 5/53/53 1/54/54
f 4/55/55 3/56/56 7/57/57
f 7/58/58 6/59/59 4/60/60
f 3/61/61 2/62/62 8/63/63
f 8/64/64 7/65/65 3/66/66
f 2/67/67 1/68/68 5/69/69
f 5/70/70 8/71/71 2/72/72
f 17/73/73 18/74/74 19/75/75
f 19/76/76 20/77/77 17/78/78
f 25/79/79 26/80/80 27/81/81
f 27/82/82 28/83/83 25/84/84
f 32/85/85 9/86/86 12/87/87
f 12/88/88 29/89/89 32/90/90
f 38/91/91 26/92/92 25/93/93
f 25/94/94 39/95/95 38/96/96
f 21/97/97 11/98/98 10/99/99
f 10/100/100 22/101/101 21/102/102
f 35/103/103 18/104/104 17/105/105
f 17/106/106 34/107/107 35/108/108
f 41/109/109 20/110/110 19/111/111
f 19/112/112 44/113/113 41/114/114
f 47/115/115 28/116/116 27/117/117
f 27/118/118 46/119/119 47/120/120
f 18/121/121 36/122/122 43/123/123
f 43/124/124 19/125/125 18/126/126
f 20/127/127 42/128/128 33/129/129
f 33/130/130 17/131/131 20/132/132
f 40/133/133 25/134/134 28/135/135
f 28/136/136 48/137/137 40/138/138
f 26/139/139 37/140/140 45/141/141
f 45/142/142 27/143/143 26/144/144
f 38/145/145 39/146/146 10/147/147
f 10/148/148 9/149/149 38/150/150
f 9/151/151 10/152/152 11/153/153
f 11/154/154 12/155/155 9/156/156
f 12/157/157 11/158/158 35/159/159
f 35/160/160 34/161/161 12/162/162
f 47/163/163 46/164/164 14/165/165
f 14/166/166 13/167/167 47/168/168
f 13/169/169 14/170/170 15/171/171
f 15/172/172 16/173/173 13/174/174
f 16/175/175 15/176/176 41/177/177
f 41/178/178 44/179/179 16/180/180
f 22/181/181 40/182/182 48/183/183
f 48/184/184 23/185/185 22/186/186
f 21/187/187 22/188/188 23/189/189
f 36/190/190 21/191/191 24/192/192
f 23/193/193 24/194/194 21/195/195
f 24/196/196 43/197/197 36/198/198
f 33/199/199 42/200/200 30/201/201
f 30/202/202 29/203/203 33/204/204
f 29/205/205 30/206/206 31/207/207
f 31/208/208 32/209/209 29/210/210
f 32/211/211 31/212/212 45/213/213
f 45/214/214 37/215/215 32/216/216
f 37/217/217 38/218/218 9/219/219
f 9/220/220 32/221/221 37/222/222
f 34/223/223 33/224/224 29/225/225
f 29/226/226 12/227/227 34/228/228
f 36/229/229 35/230/230 11/231/231
f 11/232/232 21/233/233 36/234/234
f 39/235/235 40/236/236 22/237/237
f 22/238/238 10/239/239 39/240/240
f 48/241/241 47/242/242 13/243/243
f 13/244/244 23/245/245 48/246/246
f 44/247/247 43/248/248 24/249/249
f 24/250/250 16/251/251 44/252/252
f 42/253/253 41/254/254 15/255/255
f 15/256/256 30/257/257 42/258/258
f 46/259/259 45/260/260 31/261/261
f 31/262/262 14/263/263 46/264/264
